<svg xmlns="http://www.w3.org/2000/svg" viewBox="0 0 640 512" fill="#007bbd">
  <path d="M624 352h-16V275.2c0-16.9-6.7-33.1-18.7-45.2l-83.2-83.2C495.1 133.7 480 128 464 128H416V80c0-26.5-21.5-48-48-48H48C21.5 32 0 53.5 0 80v320c0 26.5 21.5 48 48 48h16c0 35.3 28.7 64 64 64s64-28.7 64-64h192c0 35.3 28.7 64 64 64s64-28.7 64-64h16c8.8 0 16-7.2 16-16V368c0-8.8-7.2-16-16-16zm-208-96V176h48l80 80H416zm-288 80c-26.5 0-48 21.5-48 48s21.5 48 48 48 48-21.5 48-48-21.5-48-48-48zm320 0c-26.5 0-48 21.5-48 48s21.5 48 48 48 48-21.5 48-48-21.5-48-48-48z"></path>
</svg>
